<?xml version="1.0" encoding="utf-8" ?>
<svg baseProfile="full" height="400" version="1.1" width="643" xmlns="http://www.w3.org/2000/svg" xmlns:ev="http://www.w3.org/2001/xml-events" xmlns:xlink="http://www.w3.org/1999/xlink"><defs><marker id="arrow" markerHeight="3.5" markerWidth="5" orient="auto" refX="5.0" refY="1.7"><polygon points="0,0 5,1.75 0,3.5" /></marker></defs><g style="fill:white;"><g transform="matrix(1.0, 0.0, 0.0, 1.0, 321.6463414634147, 200.00000000000003)"><g transform="matrix(58.072009291521496, 0.0, 0.0, 58.072009291521496, 0.0, 0.0)"><g><g transform="matrix(1.0, 0.0, 0.0, 1.0, -4.074999999999999, 2.220446049250313e-16)"><g><g><g><g><g><g transform="matrix(0.8, 0.0, 0.0, 0.8, 0.0, 0.0)"><g transform="matrix(1.0, 0.0, 0.0, 1.0, -0.0, -3.55)"><g><g><g><g><g><g><g><g><g><g style="fill: #ffffff;stroke: black;stroke-width: 1.2000000000000002;" transform="matrix(1.0, 0.0, 0.0, 1.0, -1.3, -0.4499999999999999)"><path d="M 0.0 0.0 L 0.0 0.9 A 0.10000000000000003 0.10000000000000003 135.00000000000003 0 0 0.10000000000000003 1.0 L 2.5 1.0 A 0.10000000000000003 0.10000000000000003 45.00000000000002 0 0 2.6 0.8999999999999999 L 2.6 -1.1102230246251565e-16 A 0.10000000000000003 0.10000000000000003 -44.999999999999986 0 0 2.5 -0.10000000000000017 L 0.10000000000000009 -0.10000000000000017 A 0.10000000000000003 0.10000000000000003 -135.0 0 0 2.7755575615628914e-17 -1.3877787807814457e-16 L 2.7755575615628914e-17 0.009999999999999861 Z" style="vector-effect: non-scaling-stroke;" /></g><g transform="matrix(0.4, 0.0, 0.0, 0.4, 0.0, 0.0)"><g><g style="fill: #000000;stroke: black;stroke-width: 0.0;" transform="matrix(1.0, 0.0, 0.0, 1.0, 0.0, 0.0)"><text style="text-align:center; text-anchor:middle; dominant-baseline:middle;&#10;                      font-family:sans-serif; font-weight: bold;&#10;                      font-size:0.85px;&#10;                      vector-effect: non-scaling-stroke;" transform="translate(-5e-05, 0)">Input</text></g><g /></g></g></g></g><g style="stroke: black;stroke-width: 1.2000000000000002;" transform="matrix(1.0, 0.0, 0.0, 1.0, 0.0, 1.05)"><g /></g></g><g transform="matrix(1.0, 0.0, 0.0, 1.0, 0.0, 3.55)"><g><g><g style="fill: #ffffff;stroke: black;stroke-width: 1.2000000000000002;" transform="matrix(1.0, 0.0, 0.0, 1.0, -1.5, -2.0)"><path d="M 0.0 0.0 L 3.0 0.0 L 3.0 4.0 L 0.0 4.0 L 0.0 0.0 Z" style="vector-effect: non-scaling-stroke;" /></g></g><g transform="matrix(1.0, 0.0, 0.0, 1.0, -0.0, -1.0500000000000003)"><g><g><g><g><g style="fill: #f4c095;stroke: black;stroke-width: 1.2000000000000002;" transform="matrix(1.0, 0.0, 0.0, 1.0, -1.3, -0.4499999999999999)"><path d="M 0.0 0.0 L 0.0 0.9 A 0.10000000000000003 0.10000000000000003 135.00000000000003 0 0 0.10000000000000003 1.0 L 2.5 1.0 A 0.10000000000000003 0.10000000000000003 45.00000000000002 0 0 2.6 0.8999999999999999 L 2.6 -1.1102230246251565e-16 A 0.10000000000000003 0.10000000000000003 -44.999999999999986 0 0 2.5 -0.10000000000000017 L 0.10000000000000009 -0.10000000000000017 A 0.10000000000000003 0.10000000000000003 -135.0 0 0 2.7755575615628914e-17 -1.3877787807814457e-16 L 2.7755575615628914e-17 0.009999999999999861 Z" style="vector-effect: non-scaling-stroke;" /></g><g transform="matrix(0.4, 0.0, 0.0, 0.4, 0.0, 0.0)"><g><g style="fill: #000000;stroke: black;stroke-width: 0.0;" transform="matrix(1.0, 0.0, 0.0, 1.0, 0.0, 0.0)"><text style="text-align:center; text-anchor:middle; dominant-baseline:middle;&#10;                      font-family:sans-serif; font-weight: bold;&#10;                      font-size:0.85px;&#10;                      vector-effect: non-scaling-stroke;" transform="translate(-5e-05, 0)">Feed Forward</text></g><g /></g></g></g></g><g style="stroke: black;stroke-width: 1.2000000000000002;" transform="matrix(1.0, 0.0, 0.0, 1.0, 0.0, 1.05)"><g /></g></g><g transform="matrix(1.0, 0.0, 0.0, 1.0, 0.0, 2.1)"><g><g><g style="fill: #ffffff;stroke: black;stroke-width: 1.2000000000000002;" transform="matrix(1.0, 0.0, 0.0, 1.0, -1.3, -0.4499999999999999)"><path d="M 0.0 0.0 L 0.0 0.9 A 0.10000000000000003 0.10000000000000003 135.00000000000003 0 0 0.10000000000000003 1.0 L 2.5 1.0 A 0.10000000000000003 0.10000000000000003 45.00000000000002 0 0 2.6 0.8999999999999999 L 2.6 -1.1102230246251565e-16 A 0.10000000000000003 0.10000000000000003 -44.999999999999986 0 0 2.5 -0.10000000000000017 L 0.10000000000000009 -0.10000000000000017 A 0.10000000000000003 0.10000000000000003 -135.0 0 0 2.7755575615628914e-17 -1.3877787807814457e-16 L 2.7755575615628914e-17 0.009999999999999861 Z" style="vector-effect: non-scaling-stroke;" /></g><g transform="matrix(0.4, 0.0, 0.0, 0.4, 0.0, 0.0)"><g><g style="fill: #000000;stroke: black;stroke-width: 0.0;" transform="matrix(1.0, 0.0, 0.0, 1.0, 0.0, 0.0)"><text style="text-align:center; text-anchor:middle; dominant-baseline:middle;&#10;                      font-family:sans-serif; font-weight: bold;&#10;                      font-size:0.85px;&#10;                      vector-effect: non-scaling-stroke;" transform="translate(-5e-05, 0)">Attention</text></g><g /></g></g></g></g></g></g></g></g></g></g><g style="stroke: black;stroke-width: 1.2000000000000002;" transform="matrix(1.0, 0.0, 0.0, 1.0, 0.0, 6.05)"><g /></g></g><g transform="matrix(1.0, 0.0, 0.0, 1.0, 0.0, 7.1)"><g><g><g style="fill: #ffffff;stroke: black;stroke-width: 1.2000000000000002;" transform="matrix(1.0, 0.0, 0.0, 1.0, -1.3, -0.4499999999999999)"><path d="M 0.0 0.0 L 0.0 0.9 A 0.10000000000000003 0.10000000000000003 135.00000000000003 0 0 0.10000000000000003 1.0 L 2.5 1.0 A 0.10000000000000003 0.10000000000000003 45.00000000000002 0 0 2.6 0.8999999999999999 L 2.6 -1.1102230246251565e-16 A 0.10000000000000003 0.10000000000000003 -44.999999999999986 0 0 2.5 -0.10000000000000017 L 0.10000000000000009 -0.10000000000000017 A 0.10000000000000003 0.10000000000000003 -135.0 0 0 2.7755575615628914e-17 -1.3877787807814457e-16 L 2.7755575615628914e-17 0.009999999999999861 Z" style="vector-effect: non-scaling-stroke;" /></g><g transform="matrix(0.4, 0.0, 0.0, 0.4, 0.0, 0.0)"><g><g style="fill: #000000;stroke: black;stroke-width: 0.0;" transform="matrix(1.0, 0.0, 0.0, 1.0, 0.0, 0.0)"><text style="text-align:center; text-anchor:middle; dominant-baseline:middle;&#10;                      font-family:sans-serif; font-weight: bold;&#10;                      font-size:0.85px;&#10;                      vector-effect: non-scaling-stroke;" transform="translate(-5e-05, 0)">Final</text></g><g /></g></g></g></g></g></g><g transform="matrix(1.0, 0.0, 0.0, 1.0, 0.0, 0.5500000000000003)"><g transform="matrix(0, 1.0, -1.0, 0, 0.0, 0.0)"><g><g style="stroke: black;stroke-width: 1.2000000000000002;" transform="matrix(1.0, 0.0, 0.0, 1.0, 0.0, 0.0)"><path d="M 0.0 0.0 L 0.9999999999999996 0.0" style="vector-effect: non-scaling-stroke;fill:none;" /></g><g style="stroke: black;stroke-width: 1.2000000000000002;" transform="matrix(1.0, 0.0, 0.0, 1.0, 0.9999999999999996, 0.0)"><g style="fill: #000000;stroke: black;stroke-width: 0.0;" transform="matrix(0.0, 0.12, -0.12, 0.0, -0.144, 0.0)"><path d="M 0.0 -0.2 L 1.0 0.2 L 0.0 -1.2 L -1.0 0.19999999999999996 L 0.0 -0.2 Z" style="vector-effect: non-scaling-stroke;" /></g></g></g></g></g></g><g transform="matrix(1.0, 0.0, 0.0, 1.0, 0.0, 3.05)"><g transform="matrix(0, 1.0, -1.0, 0, 0.0, 0.0)"><g><g style="stroke: black;stroke-width: 1.2000000000000002;" transform="matrix(1.0, 0.0, 0.0, 1.0, 0.0, 0.0)"><path d="M 0.0 0.0 L 0.9999999999999991 0.0" style="vector-effect: non-scaling-stroke;fill:none;" /></g><g style="stroke: black;stroke-width: 1.2000000000000002;" transform="matrix(1.0, 0.0, 0.0, 1.0, 0.9999999999999991, 0.0)"><g style="fill: #000000;stroke: black;stroke-width: 0.0;" transform="matrix(0.0, 0.12, -0.12, 0.0, -0.144, 0.0)"><path d="M 0.0 -0.2 L 1.0 0.2 L 0.0 -1.2 L -1.0 0.19999999999999996 L 0.0 -0.2 Z" style="vector-effect: non-scaling-stroke;" /></g></g></g></g></g></g><g transform="matrix(1.0, 0.0, 0.0, 1.0, 0.0, 5.55)"><g transform="matrix(0, 1.0, -1.0, 0, 0.0, 0.0)"><g><g style="stroke: black;stroke-width: 1.2000000000000002;" transform="matrix(1.0, 0.0, 0.0, 1.0, 0.0, 0.0)"><path d="M 0.0 0.0 L 0.9999999999999991 0.0" style="vector-effect: non-scaling-stroke;fill:none;" /></g><g style="stroke: black;stroke-width: 1.2000000000000002;" transform="matrix(1.0, 0.0, 0.0, 1.0, 0.9999999999999991, 0.0)"><g style="fill: #000000;stroke: black;stroke-width: 0.0;" transform="matrix(0.0, 0.12, -0.12, 0.0, -0.144, 0.0)"><path d="M 0.0 -0.2 L 1.0 0.2 L 0.0 -1.2 L -1.0 0.19999999999999996 L 0.0 -0.2 Z" style="vector-effect: non-scaling-stroke;" /></g></g></g></g></g></g></g></g><g style="stroke: black;stroke-width: 1.2000000000000002;" transform="matrix(1.0, 0.0, 0.0, 1.0, 1.95, 0.0)"><g /></g></g><g transform="matrix(1.0, 0.0, 0.0, 1.0, 6.0249999999999995, 0.0)"><g transform="matrix(0.7, 0.0, 0.0, 0.7, 0.0, 0.0)"><g transform="matrix(1.0, 0.0, 0.0, 1.0, -0.0, -0.0)"><g><g style="fill: #f4c095;stroke: black;stroke-width: 1.2000000000000002;" transform="matrix(1.0, 0.0, 0.0, 1.0, -4.75, -1.75)"><path d="M 0.0 0.0 L 0.0 3.5 A 0.5000000000000001 0.5000000000000001 135.00000000000003 0 0 0.5 4.0 L 9.0 4.0 A 0.5000000000000001 0.5000000000000001 45.000000000000014 0 0 9.5 3.5 L 9.5 0.0 A 0.5000000000000001 0.5000000000000001 -44.999999999999986 0 0 9.0 -0.5000000000000002 L 0.5 -0.5000000000000002 A 0.5000000000000001 0.5000000000000001 -135.0 0 0 -2.220446049250313e-16 -2.220446049250313e-16 L -2.220446049250313e-16 0.009999999999999778 Z" style="vector-effect: non-scaling-stroke;" /></g><g transform="matrix(1.0, 0.0, 0.0, 1.0, -3.1, -1.0500000000000003)"><g><g><g><g><g><g><g><g><g style="fill: #ffffff;stroke: black;stroke-width: 1.2000000000000002;" transform="matrix(1.0, 0.0, 0.0, 1.0, -1.3, -0.4499999999999999)"><path d="M 0.0 0.0 L 0.0 0.9 A 0.10000000000000003 0.10000000000000003 135.00000000000003 0 0 0.10000000000000003 1.0 L 2.5 1.0 A 0.10000000000000003 0.10000000000000003 45.00000000000002 0 0 2.6 0.8999999999999999 L 2.6 -1.1102230246251565e-16 A 0.10000000000000003 0.10000000000000003 -44.999999999999986 0 0 2.5 -0.10000000000000017 L 0.10000000000000009 -0.10000000000000017 A 0.10000000000000003 0.10000000000000003 -135.0 0 0 2.7755575615628914e-17 -1.3877787807814457e-16 L 2.7755575615628914e-17 0.009999999999999861 Z" style="vector-effect: non-scaling-stroke;" /></g><g transform="matrix(0.4, 0.0, 0.0, 0.4, 0.0, 0.0)"><g><g style="fill: #000000;stroke: black;stroke-width: 0.0;" transform="matrix(1.0, 0.0, 0.0, 1.0, 0.0, 0.0)"><text style="text-align:center; text-anchor:middle; dominant-baseline:middle;&#10;                      font-family:sans-serif; font-weight: bold;&#10;                      font-size:0.85px;&#10;                      vector-effect: non-scaling-stroke;" transform="translate(-5e-05, 0)">x0</text></g><g /></g></g></g></g><g style="stroke: black;stroke-width: 1.2000000000000002;" transform="matrix(1.0, 0.0, 0.0, 1.0, 1.55, 0.0)"><g /></g></g><g transform="matrix(1.0, 0.0, 0.0, 1.0, 3.1, 0.0)"><g><g><g style="fill: #ffffff;stroke: black;stroke-width: 1.2000000000000002;" transform="matrix(1.0, 0.0, 0.0, 1.0, -1.3, -0.4499999999999999)"><path d="M 0.0 0.0 L 0.0 0.9 A 0.10000000000000003 0.10000000000000003 135.00000000000003 0 0 0.10000000000000003 1.0 L 2.5 1.0 A 0.10000000000000003 0.10000000000000003 45.00000000000002 0 0 2.6 0.8999999999999999 L 2.6 -1.1102230246251565e-16 A 0.10000000000000003 0.10000000000000003 -44.999999999999986 0 0 2.5 -0.10000000000000017 L 0.10000000000000009 -0.10000000000000017 A 0.10000000000000003 0.10000000000000003 -135.0 0 0 2.7755575615628914e-17 -1.3877787807814457e-16 L 2.7755575615628914e-17 0.009999999999999861 Z" style="vector-effect: non-scaling-stroke;" /></g><g transform="matrix(0.4, 0.0, 0.0, 0.4, 0.0, 0.0)"><g><g style="fill: #000000;stroke: black;stroke-width: 0.0;" transform="matrix(1.0, 0.0, 0.0, 1.0, 0.0, 0.0)"><text style="text-align:center; text-anchor:middle; dominant-baseline:middle;&#10;                      font-family:sans-serif; font-weight: bold;&#10;                      font-size:0.85px;&#10;                      vector-effect: non-scaling-stroke;" transform="translate(-5e-05, 0)">x1</text></g><g /></g></g></g></g></g></g><g style="stroke: black;stroke-width: 1.2000000000000002;" transform="matrix(1.0, 0.0, 0.0, 1.0, 4.65, 0.0)"><g /></g></g><g transform="matrix(1.0, 0.0, 0.0, 1.0, 6.2, 0.0)"><g><g><g style="fill: #ffffff;stroke: black;stroke-width: 1.2000000000000002;" transform="matrix(1.0, 0.0, 0.0, 1.0, -1.3, -0.4499999999999999)"><path d="M 0.0 0.0 L 0.0 0.9 A 0.10000000000000003 0.10000000000000003 135.00000000000003 0 0 0.10000000000000003 1.0 L 2.5 1.0 A 0.10000000000000003 0.10000000000000003 45.00000000000002 0 0 2.6 0.8999999999999999 L 2.6 -1.1102230246251565e-16 A 0.10000000000000003 0.10000000000000003 -44.999999999999986 0 0 2.5 -0.10000000000000017 L 0.10000000000000009 -0.10000000000000017 A 0.10000000000000003 0.10000000000000003 -135.0 0 0 2.7755575615628914e-17 -1.3877787807814457e-16 L 2.7755575615628914e-17 0.009999999999999861 Z" style="vector-effect: non-scaling-stroke;" /></g><g transform="matrix(0.4, 0.0, 0.0, 0.4, 0.0, 0.0)"><g><g style="fill: #000000;stroke: black;stroke-width: 0.0;" transform="matrix(1.0, 0.0, 0.0, 1.0, 0.0, 0.0)"><text style="text-align:center; text-anchor:middle; dominant-baseline:middle;&#10;                      font-family:sans-serif; font-weight: bold;&#10;                      font-size:0.85px;&#10;                      vector-effect: non-scaling-stroke;" transform="translate(-5e-05, 0)">x2</text></g><g /></g></g></g></g></g></g><g style="stroke: black;stroke-width: 1.2000000000000002;" transform="matrix(1.0, 0.0, 0.0, 1.0, 0.0, 1.05)"><g /></g></g><g transform="matrix(1.0, 0.0, 0.0, 1.0, 0.0, 2.1)"><g><g><g><g><g><g><g style="fill: #ffffff;stroke: black;stroke-width: 1.2000000000000002;" transform="matrix(1.0, 0.0, 0.0, 1.0, -1.3, -0.4499999999999999)"><path d="M 0.0 0.0 L 0.0 0.9 A 0.10000000000000003 0.10000000000000003 135.00000000000003 0 0 0.10000000000000003 1.0 L 2.5 1.0 A 0.10000000000000003 0.10000000000000003 45.00000000000002 0 0 2.6 0.8999999999999999 L 2.6 -1.1102230246251565e-16 A 0.10000000000000003 0.10000000000000003 -44.999999999999986 0 0 2.5 -0.10000000000000017 L 0.10000000000000009 -0.10000000000000017 A 0.10000000000000003 0.10000000000000003 -135.0 0 0 2.7755575615628914e-17 -1.3877787807814457e-16 L 2.7755575615628914e-17 0.009999999999999861 Z" style="vector-effect: non-scaling-stroke;" /></g><g transform="matrix(0.4, 0.0, 0.0, 0.4, 0.0, 0.0)"><g><g style="fill: #000000;stroke: black;stroke-width: 0.0;" transform="matrix(1.0, 0.0, 0.0, 1.0, 0.0, 0.0)"><text style="text-align:center; text-anchor:middle; dominant-baseline:middle;&#10;                      font-family:sans-serif; font-weight: bold;&#10;                      font-size:0.85px;&#10;                      vector-effect: non-scaling-stroke;" transform="translate(-5e-05, 0)">x0'</text></g><g /></g></g></g></g><g style="stroke: black;stroke-width: 1.2000000000000002;" transform="matrix(1.0, 0.0, 0.0, 1.0, 1.55, 0.0)"><g /></g></g><g transform="matrix(1.0, 0.0, 0.0, 1.0, 3.1, 0.0)"><g><g><g style="fill: #ffffff;stroke: black;stroke-width: 1.2000000000000002;" transform="matrix(1.0, 0.0, 0.0, 1.0, -1.3, -0.4499999999999999)"><path d="M 0.0 0.0 L 0.0 0.9 A 0.10000000000000003 0.10000000000000003 135.00000000000003 0 0 0.10000000000000003 1.0 L 2.5 1.0 A 0.10000000000000003 0.10000000000000003 45.00000000000002 0 0 2.6 0.8999999999999999 L 2.6 -1.1102230246251565e-16 A 0.10000000000000003 0.10000000000000003 -44.999999999999986 0 0 2.5 -0.10000000000000017 L 0.10000000000000009 -0.10000000000000017 A 0.10000000000000003 0.10000000000000003 -135.0 0 0 2.7755575615628914e-17 -1.3877787807814457e-16 L 2.7755575615628914e-17 0.009999999999999861 Z" style="vector-effect: non-scaling-stroke;" /></g><g transform="matrix(0.4, 0.0, 0.0, 0.4, 0.0, 0.0)"><g><g style="fill: #000000;stroke: black;stroke-width: 0.0;" transform="matrix(1.0, 0.0, 0.0, 1.0, 0.0, 0.0)"><text style="text-align:center; text-anchor:middle; dominant-baseline:middle;&#10;                      font-family:sans-serif; font-weight: bold;&#10;                      font-size:0.85px;&#10;                      vector-effect: non-scaling-stroke;" transform="translate(-5e-05, 0)">x1'</text></g><g /></g></g></g></g></g></g><g style="stroke: black;stroke-width: 1.2000000000000002;" transform="matrix(1.0, 0.0, 0.0, 1.0, 4.65, 0.0)"><g /></g></g><g transform="matrix(1.0, 0.0, 0.0, 1.0, 6.2, 0.0)"><g><g><g style="fill: #ffffff;stroke: black;stroke-width: 1.2000000000000002;" transform="matrix(1.0, 0.0, 0.0, 1.0, -1.3, -0.4499999999999999)"><path d="M 0.0 0.0 L 0.0 0.9 A 0.10000000000000003 0.10000000000000003 135.00000000000003 0 0 0.10000000000000003 1.0 L 2.5 1.0 A 0.10000000000000003 0.10000000000000003 45.00000000000002 0 0 2.6 0.8999999999999999 L 2.6 -1.1102230246251565e-16 A 0.10000000000000003 0.10000000000000003 -44.999999999999986 0 0 2.5 -0.10000000000000017 L 0.10000000000000009 -0.10000000000000017 A 0.10000000000000003 0.10000000000000003 -135.0 0 0 2.7755575615628914e-17 -1.3877787807814457e-16 L 2.7755575615628914e-17 0.009999999999999861 Z" style="vector-effect: non-scaling-stroke;" /></g><g transform="matrix(0.4, 0.0, 0.0, 0.4, 0.0, 0.0)"><g><g style="fill: #000000;stroke: black;stroke-width: 0.0;" transform="matrix(1.0, 0.0, 0.0, 1.0, 0.0, 0.0)"><text style="text-align:center; text-anchor:middle; dominant-baseline:middle;&#10;                      font-family:sans-serif; font-weight: bold;&#10;                      font-size:0.85px;&#10;                      vector-effect: non-scaling-stroke;" transform="translate(-5e-05, 0)">x2'</text></g><g /></g></g></g></g></g></g></g></g></g></g></g></g></g></g><g transform="matrix(1.0, 0.0, 0.0, 1.0, 3.8549999999999995, -0.35000000000000003)"><g transform="matrix(0, 1.0, -1.0, 0, 0.0, 0.0)"><g><g style="stroke: black;stroke-width: 1.2000000000000002;" transform="matrix(1.0, 0.0, 0.0, 1.0, 0.0, 0.0)"><path d="M 0.0 0.0 L 0.6999999999999998 0.0" style="vector-effect: non-scaling-stroke;fill:none;" /></g><g style="stroke: black;stroke-width: 1.2000000000000002;" transform="matrix(1.0, 0.0, 0.0, 1.0, 0.6999999999999998, 0.0)"><g style="fill: #000000;stroke: black;stroke-width: 0.0;" transform="matrix(0.0, 0.12, -0.12, 0.0, -0.144, 0.0)"><path d="M 0.0 -0.2 L 1.0 0.2 L 0.0 -1.2 L -1.0 0.19999999999999996 L 0.0 -0.2 Z" style="vector-effect: non-scaling-stroke;" /></g></g></g></g></g></g><g transform="matrix(1.0, 0.0, 0.0, 1.0, 6.0249999999999995, -0.35000000000000003)"><g transform="matrix(0, 1.0, -1.0, 0, 0.0, 0.0)"><g><g style="stroke: black;stroke-width: 1.2000000000000002;" transform="matrix(1.0, 0.0, 0.0, 1.0, 0.0, 0.0)"><path d="M 0.0 0.0 L 0.6999999999999998 0.0" style="vector-effect: non-scaling-stroke;fill:none;" /></g><g style="stroke: black;stroke-width: 1.2000000000000002;" transform="matrix(1.0, 0.0, 0.0, 1.0, 0.6999999999999998, 0.0)"><g style="fill: #000000;stroke: black;stroke-width: 0.0;" transform="matrix(0.0, 0.12, -0.12, 0.0, -0.144, 0.0)"><path d="M 0.0 -0.2 L 1.0 0.2 L 0.0 -1.2 L -1.0 0.19999999999999996 L 0.0 -0.2 Z" style="vector-effect: non-scaling-stroke;" /></g></g></g></g></g></g><g transform="matrix(1.0, 0.0, 0.0, 1.0, 8.195, -0.35000000000000003)"><g transform="matrix(0, 1.0, -1.0, 0, 0.0, 0.0)"><g><g style="stroke: black;stroke-width: 1.2000000000000002;" transform="matrix(1.0, 0.0, 0.0, 1.0, 0.0, 0.0)"><path d="M 0.0 0.0 L 0.6999999999999998 0.0" style="vector-effect: non-scaling-stroke;fill:none;" /></g><g style="stroke: black;stroke-width: 1.2000000000000002;" transform="matrix(1.0, 0.0, 0.0, 1.0, 0.6999999999999998, 0.0)"><g style="fill: #000000;stroke: black;stroke-width: 0.0;" transform="matrix(0.0, 0.12, -0.12, 0.0, -0.144, 0.0)"><path d="M 0.0 -0.2 L 1.0 0.2 L 0.0 -1.2 L -1.0 0.19999999999999996 L 0.0 -0.2 Z" style="vector-effect: non-scaling-stroke;" /></g></g></g></g></g></g></g><g /></g></g></g></g></svg>