<?xml version="1.0" encoding="utf-8" ?>
<svg baseProfile="full" height="400" version="1.1" width="463" xmlns="http://www.w3.org/2000/svg" xmlns:ev="http://www.w3.org/2001/xml-events" xmlns:xlink="http://www.w3.org/1999/xlink"><defs><marker id="arrow" markerHeight="3.5" markerWidth="5" orient="auto" refX="5.0" refY="1.7"><polygon points="0,0 5,1.75 0,3.5" /></marker></defs><g style="fill:white;"><g transform="matrix(1.0, 0.0, 0.0, 1.0, 231.70731707317074, 200.0)"><g transform="matrix(46.45760743321719, 0.0, 0.0, 46.45760743321719, 0.0, 0.0)"><g><g transform="matrix(1.0, 0.0, 0.0, 1.0, -3.25, -0.0)"><g><g><g transform="matrix(1.0, 0.0, 0.0, 1.0, -0.0, -3.55)"><g><g><g><g><g><g><g><g><g><g style="fill: #ffffff;stroke: black;stroke-width: 1.2000000000000002;" transform="matrix(1.0, 0.0, 0.0, 1.0, -1.3, -0.4499999999999999)"><path d="M 0.0 0.0 L 0.0 0.9 A 0.10000000000000003 0.10000000000000003 135.00000000000003 0 0 0.10000000000000003 1.0 L 2.5 1.0 A 0.10000000000000003 0.10000000000000003 45.00000000000002 0 0 2.6 0.8999999999999999 L 2.6 -1.1102230246251565e-16 A 0.10000000000000003 0.10000000000000003 -44.999999999999986 0 0 2.5 -0.10000000000000017 L 0.10000000000000009 -0.10000000000000017 A 0.10000000000000003 0.10000000000000003 -135.0 0 0 2.7755575615628914e-17 -1.3877787807814457e-16 L 2.7755575615628914e-17 0.009999999999999861 Z" style="vector-effect: non-scaling-stroke;" /></g><g transform="matrix(0.4, 0.0, 0.0, 0.4, 0.0, 0.0)"><g><g style="fill: #000000;stroke: black;stroke-width: 0.0;" transform="matrix(1.0, 0.0, 0.0, 1.0, 0.0, 0.0)"><text style="text-align:center; text-anchor:middle; dominant-baseline:middle;&#10;                      font-family:sans-serif; font-weight: bold;&#10;                      font-size:0.85px;&#10;                      vector-effect: non-scaling-stroke;" transform="translate(-5e-05, 0)">Input</text></g><g /></g></g></g></g><g style="stroke: black;stroke-width: 1.2000000000000002;" transform="matrix(1.0, 0.0, 0.0, 1.0, 0.0, 1.05)"><g /></g></g><g transform="matrix(1.0, 0.0, 0.0, 1.0, 0.0, 3.55)"><g><g><g style="fill: #ffffff;stroke: black;stroke-width: 1.2000000000000002;" transform="matrix(1.0, 0.0, 0.0, 1.0, -1.5, -2.0)"><path d="M 0.0 0.0 L 3.0 0.0 L 3.0 4.0 L 0.0 4.0 L 0.0 0.0 Z" style="vector-effect: non-scaling-stroke;" /></g></g><g transform="matrix(1.0, 0.0, 0.0, 1.0, -0.0, -1.0500000000000003)"><g><g><g><g><g style="fill: #ffffff;stroke: black;stroke-width: 1.2000000000000002;" transform="matrix(1.0, 0.0, 0.0, 1.0, -1.3, -0.4499999999999999)"><path d="M 0.0 0.0 L 0.0 0.9 A 0.10000000000000003 0.10000000000000003 135.00000000000003 0 0 0.10000000000000003 1.0 L 2.5 1.0 A 0.10000000000000003 0.10000000000000003 45.00000000000002 0 0 2.6 0.8999999999999999 L 2.6 -1.1102230246251565e-16 A 0.10000000000000003 0.10000000000000003 -44.999999999999986 0 0 2.5 -0.10000000000000017 L 0.10000000000000009 -0.10000000000000017 A 0.10000000000000003 0.10000000000000003 -135.0 0 0 2.7755575615628914e-17 -1.3877787807814457e-16 L 2.7755575615628914e-17 0.009999999999999861 Z" style="vector-effect: non-scaling-stroke;" /></g><g transform="matrix(0.4, 0.0, 0.0, 0.4, 0.0, 0.0)"><g><g style="fill: #000000;stroke: black;stroke-width: 0.0;" transform="matrix(1.0, 0.0, 0.0, 1.0, 0.0, 0.0)"><text style="text-align:center; text-anchor:middle; dominant-baseline:middle;&#10;                      font-family:sans-serif; font-weight: bold;&#10;                      font-size:0.85px;&#10;                      vector-effect: non-scaling-stroke;" transform="translate(-5e-05, 0)">Feed Forward</text></g><g /></g></g></g></g><g style="stroke: black;stroke-width: 1.2000000000000002;" transform="matrix(1.0, 0.0, 0.0, 1.0, 0.0, 1.05)"><g /></g></g><g transform="matrix(1.0, 0.0, 0.0, 1.0, 0.0, 2.1)"><g><g><g style="fill: #f4c095;stroke: black;stroke-width: 1.2000000000000002;" transform="matrix(1.0, 0.0, 0.0, 1.0, -1.3, -0.4499999999999999)"><path d="M 0.0 0.0 L 0.0 0.9 A 0.10000000000000003 0.10000000000000003 135.00000000000003 0 0 0.10000000000000003 1.0 L 2.5 1.0 A 0.10000000000000003 0.10000000000000003 45.00000000000002 0 0 2.6 0.8999999999999999 L 2.6 -1.1102230246251565e-16 A 0.10000000000000003 0.10000000000000003 -44.999999999999986 0 0 2.5 -0.10000000000000017 L 0.10000000000000009 -0.10000000000000017 A 0.10000000000000003 0.10000000000000003 -135.0 0 0 2.7755575615628914e-17 -1.3877787807814457e-16 L 2.7755575615628914e-17 0.009999999999999861 Z" style="vector-effect: non-scaling-stroke;" /></g><g transform="matrix(0.4, 0.0, 0.0, 0.4, 0.0, 0.0)"><g><g style="fill: #000000;stroke: black;stroke-width: 0.0;" transform="matrix(1.0, 0.0, 0.0, 1.0, 0.0, 0.0)"><text style="text-align:center; text-anchor:middle; dominant-baseline:middle;&#10;                      font-family:sans-serif; font-weight: bold;&#10;                      font-size:0.85px;&#10;                      vector-effect: non-scaling-stroke;" transform="translate(-5e-05, 0)">Attention</text></g><g /></g></g></g></g></g></g></g></g></g></g><g style="stroke: black;stroke-width: 1.2000000000000002;" transform="matrix(1.0, 0.0, 0.0, 1.0, 0.0, 6.05)"><g /></g></g><g transform="matrix(1.0, 0.0, 0.0, 1.0, 0.0, 7.1)"><g><g><g style="fill: #ffffff;stroke: black;stroke-width: 1.2000000000000002;" transform="matrix(1.0, 0.0, 0.0, 1.0, -1.3, -0.4499999999999999)"><path d="M 0.0 0.0 L 0.0 0.9 A 0.10000000000000003 0.10000000000000003 135.00000000000003 0 0 0.10000000000000003 1.0 L 2.5 1.0 A 0.10000000000000003 0.10000000000000003 45.00000000000002 0 0 2.6 0.8999999999999999 L 2.6 -1.1102230246251565e-16 A 0.10000000000000003 0.10000000000000003 -44.999999999999986 0 0 2.5 -0.10000000000000017 L 0.10000000000000009 -0.10000000000000017 A 0.10000000000000003 0.10000000000000003 -135.0 0 0 2.7755575615628914e-17 -1.3877787807814457e-16 L 2.7755575615628914e-17 0.009999999999999861 Z" style="vector-effect: non-scaling-stroke;" /></g><g transform="matrix(0.4, 0.0, 0.0, 0.4, 0.0, 0.0)"><g><g style="fill: #000000;stroke: black;stroke-width: 0.0;" transform="matrix(1.0, 0.0, 0.0, 1.0, 0.0, 0.0)"><text style="text-align:center; text-anchor:middle; dominant-baseline:middle;&#10;                      font-family:sans-serif; font-weight: bold;&#10;                      font-size:0.85px;&#10;                      vector-effect: non-scaling-stroke;" transform="translate(-5e-05, 0)">Final</text></g><g /></g></g></g></g></g></g><g transform="matrix(1.0, 0.0, 0.0, 1.0, 0.0, 0.5500000000000003)"><g transform="matrix(0, 1.0, -1.0, 0, 0.0, 0.0)"><g><g style="stroke: black;stroke-width: 1.2000000000000002;" transform="matrix(1.0, 0.0, 0.0, 1.0, 0.0, 0.0)"><path d="M 0.0 0.0 L 0.9999999999999996 0.0" style="vector-effect: non-scaling-stroke;fill:none;" /></g><g style="stroke: black;stroke-width: 1.2000000000000002;" transform="matrix(1.0, 0.0, 0.0, 1.0, 0.9999999999999996, 0.0)"><g style="fill: #000000;stroke: black;stroke-width: 0.0;" transform="matrix(0.0, 0.12, -0.12, 0.0, -0.144, 0.0)"><path d="M 0.0 -0.2 L 1.0 0.2 L 0.0 -1.2 L -1.0 0.19999999999999996 L 0.0 -0.2 Z" style="vector-effect: non-scaling-stroke;" /></g></g></g></g></g></g><g transform="matrix(1.0, 0.0, 0.0, 1.0, 0.0, 3.05)"><g transform="matrix(0, 1.0, -1.0, 0, 0.0, 0.0)"><g><g style="stroke: black;stroke-width: 1.2000000000000002;" transform="matrix(1.0, 0.0, 0.0, 1.0, 0.0, 0.0)"><path d="M 0.0 0.0 L 0.9999999999999991 0.0" style="vector-effect: non-scaling-stroke;fill:none;" /></g><g style="stroke: black;stroke-width: 1.2000000000000002;" transform="matrix(1.0, 0.0, 0.0, 1.0, 0.9999999999999991, 0.0)"><g style="fill: #000000;stroke: black;stroke-width: 0.0;" transform="matrix(0.0, 0.12, -0.12, 0.0, -0.144, 0.0)"><path d="M 0.0 -0.2 L 1.0 0.2 L 0.0 -1.2 L -1.0 0.19999999999999996 L 0.0 -0.2 Z" style="vector-effect: non-scaling-stroke;" /></g></g></g></g></g></g><g transform="matrix(1.0, 0.0, 0.0, 1.0, 0.0, 5.55)"><g transform="matrix(0, 1.0, -1.0, 0, 0.0, 0.0)"><g><g style="stroke: black;stroke-width: 1.2000000000000002;" transform="matrix(1.0, 0.0, 0.0, 1.0, 0.0, 0.0)"><path d="M 0.0 0.0 L 0.9999999999999991 0.0" style="vector-effect: non-scaling-stroke;fill:none;" /></g><g style="stroke: black;stroke-width: 1.2000000000000002;" transform="matrix(1.0, 0.0, 0.0, 1.0, 0.9999999999999991, 0.0)"><g style="fill: #000000;stroke: black;stroke-width: 0.0;" transform="matrix(0.0, 0.12, -0.12, 0.0, -0.144, 0.0)"><path d="M 0.0 -0.2 L 1.0 0.2 L 0.0 -1.2 L -1.0 0.19999999999999996 L 0.0 -0.2 Z" style="vector-effect: non-scaling-stroke;" /></g></g></g></g></g></g></g><g style="stroke: black;stroke-width: 1.2000000000000002;" transform="matrix(1.0, 0.0, 0.0, 1.0, 2.5, 0.0)"><g /></g></g><g transform="matrix(1.0, 0.0, 0.0, 1.0, 5.75, 0.0)"><g transform="matrix(1.0, 0.0, 0.0, 1.0, -0.0, -0.0)"><g><g><g><g><g><g><g><g><g><g><g><g style="stroke: black;stroke-width: 1.2000000000000002;" transform="matrix(1.0, 0.0, 0.0, 1.0, -1.25, -1.25)"><path d="M 0.0 0.0 L 2.5 0.0 L 2.5 2.5 L 0.0 2.5 L 0.0 0.0 Z" style="vector-effect: non-scaling-stroke;" /></g><g transform="matrix(1.0, 0.0, 0.0, 1.0, -1.75, -0.0)"><g><g transform="matrix(0.0, -1.0, 1.0, 0.0, 0.0, 0.0)"><g><g style="fill: #679289;stroke: black;stroke-width: 1.2000000000000002;" transform="matrix(1.0, 0.0, 0.0, 1.0, -1.25, -0.5)"><path d="M 0.0 0.0 L 2.5 0.0 L 2.5 1.0 L 0.0 1.0 L 0.0 0.0 Z" style="vector-effect: non-scaling-stroke;" /></g><g transform="matrix(0.4, 0.0, 0.0, 0.4, 0.0, 0.0)"><g><g style="fill: #000000;stroke: black;stroke-width: 0.0;" transform="matrix(1.0, 0.0, 0.0, 1.0, 0.0, 0.0)"><text style="text-align:center; text-anchor:middle; dominant-baseline:middle;&#10;                      font-family:sans-serif; font-weight: bold;&#10;                      font-size:0.85px;&#10;                      vector-effect: non-scaling-stroke;" transform="translate(-5e-05, 0)">key</text></g><g /></g></g></g></g></g></g></g><g transform="matrix(1.0, 0.0, 0.0, 1.0, -0.0, -1.75)"><g><g><g style="fill: #f4c095;stroke: black;stroke-width: 1.2000000000000002;" transform="matrix(1.0, 0.0, 0.0, 1.0, -1.25, -0.5)"><path d="M 0.0 0.0 L 2.5 0.0 L 2.5 1.0 L 0.0 1.0 L 0.0 0.0 Z" style="vector-effect: non-scaling-stroke;" /></g><g transform="matrix(0.4, 0.0, 0.0, 0.4, 0.0, 0.0)"><g><g style="fill: #000000;stroke: black;stroke-width: 0.0;" transform="matrix(1.0, 0.0, 0.0, 1.0, 0.0, 0.0)"><text style="text-align:center; text-anchor:middle; dominant-baseline:middle;&#10;                      font-family:sans-serif; font-weight: bold;&#10;                      font-size:0.85px;&#10;                      vector-effect: non-scaling-stroke;" transform="translate(-5e-05, 0)">query</text></g><g /></g></g></g></g></g></g><g transform="matrix(1.0, 0.0, 0.0, 1.0, 1.75, 0.0)"><g><g transform="matrix(0, 1.0, -1.0, 0, 0.0, 0.0)"><g><g style="fill: #ee2e31;stroke: black;stroke-width: 1.2000000000000002;" transform="matrix(1.0, 0.0, 0.0, 1.0, -1.25, -0.5)"><path d="M 0.0 0.0 L 2.5 0.0 L 2.5 1.0 L 0.0 1.0 L 0.0 0.0 Z" style="vector-effect: non-scaling-stroke;" /></g><g transform="matrix(0.4, 0.0, 0.0, 0.4, 0.0, 0.0)"><g><g style="fill: #000000;stroke: black;stroke-width: 0.0;" transform="matrix(1.0, 0.0, 0.0, 1.0, 0.0, 0.0)"><text style="text-align:center; text-anchor:middle; dominant-baseline:middle;&#10;                      font-family:sans-serif; font-weight: bold;&#10;                      font-size:0.85px;&#10;                      vector-effect: non-scaling-stroke;" transform="translate(-5e-05, 0)">value</text></g><g /></g></g></g></g></g></g></g><g transform="matrix(1.0, 0.0, 0.0, 1.0, 0.0, 1.75)"><g><g><g style="fill: #ffffff;stroke: black;stroke-width: 1.2000000000000002;" transform="matrix(1.0, 0.0, 0.0, 1.0, -1.25, -0.5)"><path d="M 0.0 0.0 L 2.5 0.0 L 2.5 1.0 L 0.0 1.0 L 0.0 0.0 Z" style="vector-effect: non-scaling-stroke;" /></g><g transform="matrix(0.4, 0.0, 0.0, 0.4, 0.0, 0.0)"><g><g style="fill: #000000;stroke: black;stroke-width: 0.0;" transform="matrix(1.0, 0.0, 0.0, 1.0, 0.0, 0.0)"><text style="text-align:center; text-anchor:middle; dominant-baseline:middle;&#10;                      font-family:sans-serif; font-weight: bold;&#10;                      font-size:0.85px;&#10;                      vector-effect: non-scaling-stroke;" transform="translate(-5e-05, 0)">output</text></g><g /></g></g></g></g></g></g><g transform="matrix(1.0, 0.0, 0.0, 1.0, 0.0, -0.5)"><g><g style="fill: #071e22;stroke: black;stroke-width: 1.2000000000000002;" transform="matrix(1.0, 0.0, 0.0, 1.0, -0.2, -0.2)"><path d="M 0.0 0.0 L 0.4 0.0 L 0.4 0.4 L 0.0 0.4 L 0.0 0.0 Z" style="vector-effect: non-scaling-stroke;" /></g></g></g></g><g transform="matrix(1.0, 0.0, 0.0, 1.0, 0.0, 0.5)"><g><g style="fill: #071e22;stroke: black;stroke-width: 1.2000000000000002;" transform="matrix(1.0, 0.0, 0.0, 1.0, -0.2, -0.2)"><path d="M 0.0 0.0 L 0.4 0.0 L 0.4 0.4 L 0.0 0.4 L 0.0 0.0 Z" style="vector-effect: non-scaling-stroke;" /></g></g></g></g><g transform="matrix(1.0, 0.0, 0.0, 1.0, -1.25, 0.0)"><g transform="matrix(0.9028605188239304, -0.4299335803923477, 0.4299335803923477, 0.9028605188239304, 0.0, 0.0)"><g><g style="stroke: black;stroke-width: 1.2000000000000002;" transform="matrix(1.0, 0.0, 0.0, 1.0, 0.0, 0.0)"><path d="M 0.0 0.0 L 1.1629703349613008 0.0" style="vector-effect: non-scaling-stroke;fill:none;" /></g><g style="stroke: black;stroke-width: 1.2000000000000002;" transform="matrix(1.0, 0.0, 0.0, 1.0, 1.1629703349613008, 0.0)"><g style="fill: #000000;stroke: black;stroke-width: 0.0;" transform="matrix(0.0, 0.12, -0.12, 0.0, -0.144, 0.0)"><path d="M 0.0 -0.2 L 1.0 0.2 L 0.0 -1.2 L -1.0 0.19999999999999996 L 0.0 -0.2 Z" style="vector-effect: non-scaling-stroke;" /></g></g></g></g></g></g><g transform="matrix(1.0, 0.0, 0.0, 1.0, 0.0, -1.25)"><g transform="matrix(0, 1.0, -1.0, 0, 0.0, 0.0)"><g><g style="stroke: black;stroke-width: 1.2000000000000002;" transform="matrix(1.0, 0.0, 0.0, 1.0, 0.0, 0.0)"><path d="M 0.0 0.0 L 0.55 0.0" style="vector-effect: non-scaling-stroke;fill:none;" /></g><g style="stroke: black;stroke-width: 1.2000000000000002;" transform="matrix(1.0, 0.0, 0.0, 1.0, 0.55, 0.0)"><g style="fill: #000000;stroke: black;stroke-width: 0.0;" transform="matrix(0.0, 0.12, -0.12, 0.0, -0.144, 0.0)"><path d="M 0.0 -0.2 L 1.0 0.2 L 0.0 -1.2 L -1.0 0.19999999999999996 L 0.0 -0.2 Z" style="vector-effect: non-scaling-stroke;" /></g></g></g></g></g></g><g transform="matrix(1.0, 0.0, 0.0, 1.0, 0.0, -0.2999999999999999)"><g transform="matrix(0, 1.0, -1.0, 0, 0.0, 0.0)"><g><g style="stroke: black;stroke-width: 1.2000000000000002;" transform="matrix(1.0, 0.0, 0.0, 1.0, 0.0, 0.0)"><path d="M 0.0 0.0 L 0.5999999999999999 0.0" style="vector-effect: non-scaling-stroke;fill:none;" /></g><g style="stroke: black;stroke-width: 1.2000000000000002;" transform="matrix(1.0, 0.0, 0.0, 1.0, 0.5999999999999999, 0.0)"><g style="fill: #000000;stroke: black;stroke-width: 0.0;" transform="matrix(0.0, 0.12, -0.12, 0.0, -0.144, 0.0)"><path d="M 0.0 -0.2 L 1.0 0.2 L 0.0 -1.2 L -1.0 0.19999999999999996 L 0.0 -0.2 Z" style="vector-effect: non-scaling-stroke;" /></g></g></g></g></g></g><g transform="matrix(1.0, 0.0, 0.0, 1.0, 1.25, 0.0)"><g transform="matrix(-0.9028605188239305, 0.4299335803923474, -0.4299335803923474, -0.9028605188239305, 0.0, 0.0)"><g><g style="stroke: black;stroke-width: 1.2000000000000002;" transform="matrix(1.0, 0.0, 0.0, 1.0, 0.0, 0.0)"><path d="M 0.0 0.0 L 1.1629703349613008 0.0" style="vector-effect: non-scaling-stroke;fill:none;" /></g><g style="stroke: black;stroke-width: 1.2000000000000002;" transform="matrix(1.0, 0.0, 0.0, 1.0, 1.1629703349613008, 0.0)"><g style="fill: #000000;stroke: black;stroke-width: 0.0;" transform="matrix(0.0, 0.12, -0.12, 0.0, -0.144, 0.0)"><path d="M 0.0 -0.2 L 1.0 0.2 L 0.0 -1.2 L -1.0 0.19999999999999996 L 0.0 -0.2 Z" style="vector-effect: non-scaling-stroke;" /></g></g></g></g></g></g><g transform="matrix(1.0, 0.0, 0.0, 1.0, 0.0, 0.7000000000000001)"><g transform="matrix(0, 1.0, -1.0, 0, 0.0, 0.0)"><g><g style="stroke: black;stroke-width: 1.2000000000000002;" transform="matrix(1.0, 0.0, 0.0, 1.0, 0.0, 0.0)"><path d="M 0.0 0.0 L 0.5499999999999999 0.0" style="vector-effect: non-scaling-stroke;fill:none;" /></g><g style="stroke: black;stroke-width: 1.2000000000000002;" transform="matrix(1.0, 0.0, 0.0, 1.0, 0.5499999999999999, 0.0)"><g style="fill: #000000;stroke: black;stroke-width: 0.0;" transform="matrix(0.0, 0.12, -0.12, 0.0, -0.144, 0.0)"><path d="M 0.0 -0.2 L 1.0 0.2 L 0.0 -1.2 L -1.0 0.19999999999999996 L 0.0 -0.2 Z" style="vector-effect: non-scaling-stroke;" /></g></g></g></g></g></g></g></g></g></g><g /></g></g></g></g></svg>